<svg class="main-svg" xmlns="http://www.w3.org/2000/svg" xmlns:xlink="http://www.w3.org/1999/xlink" width="2400" height="1600" style="" viewBox="0 0 1200 800"><rect x="0" y="0" width="1200" height="800" style="fill: rgb(243, 243, 238); fill-opacity: 1;"/><defs id="defs-ede0e4"><g class="clips"><clipPath id="clipede0e4xyplot" class="plotclip"><rect width="1040" height="572"/></clipPath><clipPath class="axesclip" id="clipede0e4x"><rect x="80" y="0" width="1040" height="800"/></clipPath><clipPath class="axesclip" id="clipede0e4y"><rect x="0" y="148" width="1200" height="572"/></clipPath><clipPath class="axesclip" id="clipede0e4xy"><rect x="80" y="148" width="1040" height="572"/></clipPath></g><g class="gradients"/><g class="patterns"/></defs><g class="bglayer"><rect class="bg" x="80" y="148" width="1040" height="572" style="fill: rgb(255, 255, 255); fill-opacity: 1; stroke-width: 0;"/></g><g class="layer-below"><g class="imagelayer"/><g class="shapelayer"/></g><g class="cartesianlayer"><g class="subplot xy"><g class="layer-subplot"><g class="shapelayer"/><g class="imagelayer"/></g><g class="minor-gridlayer"><g class="x"/><g class="y"/></g><g class="gridlayer"><g class="x"/><g class="y"/></g><g class="zerolinelayer"/><g class="layer-between"><g class="shapelayer"/><g class="imagelayer"/></g><path class="xlines-below"/><path class="ylines-below"/><g class="overlines-below"/><g class="xaxislayer-below"/><g class="yaxislayer-below"/><g class="overaxes-below"/><g class="overplot"><g class="xy" transform="translate(80,148)" clip-path="url(#clipede0e4xyplot)"><g class="scatterlayer mlayer"><g class="trace scatter trace9027e7" style="stroke-miterlimit: 2; opacity: 1;"><g class="fills"/><g class="errorbars"/><g class="lines"/><g class="points"><path class="point" transform="translate(520,28.6)" d="M40,0A40,40 0 1,1 0,-40A40,40 0 0,1 40,0Z" style="opacity: 1; stroke-width: 3px; fill: rgb(210, 186, 76); fill-opacity: 1; stroke: rgb(255, 255, 255); stroke-opacity: 1;"/></g><g class="text"><g class="textpoint" transform="translate(0,3)"><text x="520" y="28.6" text-anchor="middle" style="font-family: 'Arial Black'; font-size: 12px; fill: rgb(255, 255, 255); fill-opacity: 1; white-space: pre;">Training Data</text></g></g></g><g class="trace scatter tracea3079a" style="stroke-miterlimit: 2; opacity: 1;"><g class="fills"/><g class="errorbars"/><g class="lines"/><g class="points"><path class="point" transform="translate(156,114.4)" d="M40,0A40,40 0 1,1 0,-40A40,40 0 0,1 40,0Z" style="opacity: 1; stroke-width: 3px; fill: rgb(31, 184, 205); fill-opacity: 1; stroke: rgb(255, 255, 255); stroke-opacity: 1;"/></g><g class="text"><g class="textpoint" transform="translate(0,3)"><text x="156" y="114.4" text-anchor="middle" style="font-family: 'Arial Black'; font-size: 12px; fill: rgb(255, 255, 255); fill-opacity: 1; white-space: pre;">Bootstrap Samp</text></g></g></g><g class="trace scatter trace1bfae5" style="stroke-miterlimit: 2; opacity: 1;"><g class="fills"/><g class="errorbars"/><g class="lines"/><g class="points"><path class="point" transform="translate(156,200.2)" d="M40,0A40,40 0 1,1 0,-40A40,40 0 0,1 40,0Z" style="opacity: 1; stroke-width: 3px; fill: rgb(31, 184, 205); fill-opacity: 1; stroke: rgb(255, 255, 255); stroke-opacity: 1;"/></g><g class="text"><g class="textpoint" transform="translate(0,3)"><text x="156" y="200.2" text-anchor="middle" style="font-family: 'Arial Black'; font-size: 12px; fill: rgb(255, 255, 255); fill-opacity: 1; white-space: pre;">Parallel Mod</text></g></g></g><g class="trace scatter trace61ffdf" style="stroke-miterlimit: 2; opacity: 1;"><g class="fills"/><g class="errorbars"/><g class="lines"/><g class="points"><path class="point" transform="translate(156,286)" d="M40,0A40,40 0 1,1 0,-40A40,40 0 0,1 40,0Z" style="opacity: 1; stroke-width: 3px; fill: rgb(31, 184, 205); fill-opacity: 1; stroke: rgb(255, 255, 255); stroke-opacity: 1;"/></g><g class="text"><g class="textpoint" transform="translate(0,3)"><text x="156" y="286" text-anchor="middle" style="font-family: 'Arial Black'; font-size: 12px; fill: rgb(255, 255, 255); fill-opacity: 1; white-space: pre;">Vote/Average</text></g></g></g><g class="trace scatter traceb8cde9" style="stroke-miterlimit: 2; opacity: 1;"><g class="fills"/><g class="errorbars"/><g class="lines"/><g class="points"><path class="point" transform="translate(156,371.8)" d="M40,0A40,40 0 1,1 0,-40A40,40 0 0,1 40,0Z" style="opacity: 1; stroke-width: 3px; fill: rgb(31, 184, 205); fill-opacity: 1; stroke: rgb(255, 255, 255); stroke-opacity: 1;"/></g><g class="text"><g class="textpoint" transform="translate(0,3)"><text x="156" y="371.8" text-anchor="middle" style="font-family: 'Arial Black'; font-size: 12px; fill: rgb(255, 255, 255); fill-opacity: 1; white-space: pre;">Bagging Pred</text></g></g></g><g class="trace scatter trace358f34" style="stroke-miterlimit: 2; opacity: 1;"><g class="fills"/><g class="errorbars"/><g class="lines"/><g class="points"><path class="point" transform="translate(520,114.4)" d="M40,0A40,40 0 1,1 0,-40A40,40 0 0,1 40,0Z" style="opacity: 1; stroke-width: 3px; fill: rgb(219, 69, 69); fill-opacity: 1; stroke: rgb(255, 255, 255); stroke-opacity: 1;"/></g><g class="text"><g class="textpoint" transform="translate(0,3)"><text x="520" y="114.4" text-anchor="middle" style="font-family: 'Arial Black'; font-size: 12px; fill: rgb(255, 255, 255); fill-opacity: 1; white-space: pre;">Sequential Tr</text></g></g></g><g class="trace scatter trace8b27f2" style="stroke-miterlimit: 2; opacity: 1;"><g class="fills"/><g class="errorbars"/><g class="lines"/><g class="points"><path class="point" transform="translate(520,200.2)" d="M40,0A40,40 0 1,1 0,-40A40,40 0 0,1 40,0Z" style="opacity: 1; stroke-width: 3px; fill: rgb(219, 69, 69); fill-opacity: 1; stroke: rgb(255, 255, 255); stroke-opacity: 1;"/></g><g class="text"><g class="textpoint" transform="translate(0,3)"><text x="520" y="200.2" text-anchor="middle" style="font-family: 'Arial Black'; font-size: 12px; fill: rgb(255, 255, 255); fill-opacity: 1; white-space: pre;">Model 1</text></g></g></g><g class="trace scatter tracebeed09" style="stroke-miterlimit: 2; opacity: 1;"><g class="fills"/><g class="errorbars"/><g class="lines"/><g class="points"><path class="point" transform="translate(520,286)" d="M40,0A40,40 0 1,1 0,-40A40,40 0 0,1 40,0Z" style="opacity: 1; stroke-width: 3px; fill: rgb(219, 69, 69); fill-opacity: 1; stroke: rgb(255, 255, 255); stroke-opacity: 1;"/></g><g class="text"><g class="textpoint" transform="translate(0,3)"><text x="520" y="286" text-anchor="middle" style="font-family: 'Arial Black'; font-size: 12px; fill: rgb(255, 255, 255); fill-opacity: 1; white-space: pre;">Model 2+Errors</text></g></g></g><g class="trace scatter trace0cf447" style="stroke-miterlimit: 2; opacity: 1;"><g class="fills"/><g class="errorbars"/><g class="lines"/><g class="points"><path class="point" transform="translate(520,371.8)" d="M40,0A40,40 0 1,1 0,-40A40,40 0 0,1 40,0Z" style="opacity: 1; stroke-width: 3px; fill: rgb(219, 69, 69); fill-opacity: 1; stroke: rgb(255, 255, 255); stroke-opacity: 1;"/></g><g class="text"><g class="textpoint" transform="translate(0,3)"><text x="520" y="371.8" text-anchor="middle" style="font-family: 'Arial Black'; font-size: 12px; fill: rgb(255, 255, 255); fill-opacity: 1; white-space: pre;">Weighted Comb</text></g></g></g><g class="trace scatter traced72994" style="stroke-miterlimit: 2; opacity: 1;"><g class="fills"/><g class="errorbars"/><g class="lines"/><g class="points"><path class="point" transform="translate(520,457.6)" d="M40,0A40,40 0 1,1 0,-40A40,40 0 0,1 40,0Z" style="opacity: 1; stroke-width: 3px; fill: rgb(219, 69, 69); fill-opacity: 1; stroke: rgb(255, 255, 255); stroke-opacity: 1;"/></g><g class="text"><g class="textpoint" transform="translate(0,3)"><text x="520" y="457.6" text-anchor="middle" style="font-family: 'Arial Black'; font-size: 12px; fill: rgb(255, 255, 255); fill-opacity: 1; white-space: pre;">Boosting Pred</text></g></g></g><g class="trace scatter tracea6c698" style="stroke-miterlimit: 2; opacity: 1;"><g class="fills"/><g class="errorbars"/><g class="lines"/><g class="points"><path class="point" transform="translate(884,114.4)" d="M40,0A40,40 0 1,1 0,-40A40,40 0 0,1 40,0Z" style="opacity: 1; stroke-width: 3px; fill: rgb(46, 139, 87); fill-opacity: 1; stroke: rgb(255, 255, 255); stroke-opacity: 1;"/></g><g class="text"><g class="textpoint" transform="translate(0,3)"><text x="884" y="114.4" text-anchor="middle" style="font-family: 'Arial Black'; font-size: 12px; fill: rgb(255, 255, 255); fill-opacity: 1; white-space: pre;">Level 0 Mod</text></g></g></g><g class="trace scatter tracee803d2" style="stroke-miterlimit: 2; opacity: 1;"><g class="fills"/><g class="errorbars"/><g class="lines"/><g class="points"><path class="point" transform="translate(884,200.2)" d="M40,0A40,40 0 1,1 0,-40A40,40 0 0,1 40,0Z" style="opacity: 1; stroke-width: 3px; fill: rgb(46, 139, 87); fill-opacity: 1; stroke: rgb(255, 255, 255); stroke-opacity: 1;"/></g><g class="text"><g class="textpoint" transform="translate(0,3)"><text x="884" y="200.2" text-anchor="middle" style="font-family: 'Arial Black'; font-size: 12px; fill: rgb(255, 255, 255); fill-opacity: 1; white-space: pre;">Base Pred</text></g></g></g><g class="trace scatter trace5e4ffb" style="stroke-miterlimit: 2; opacity: 1;"><g class="fills"/><g class="errorbars"/><g class="lines"/><g class="points"><path class="point" transform="translate(884,286)" d="M40,0A40,40 0 1,1 0,-40A40,40 0 0,1 40,0Z" style="opacity: 1; stroke-width: 3px; fill: rgb(46, 139, 87); fill-opacity: 1; stroke: rgb(255, 255, 255); stroke-opacity: 1;"/></g><g class="text"><g class="textpoint" transform="translate(0,3)"><text x="884" y="286" text-anchor="middle" style="font-family: 'Arial Black'; font-size: 12px; fill: rgb(255, 255, 255); fill-opacity: 1; white-space: pre;">Meta-Model</text></g></g></g><g class="trace scatter trace6f9c97" style="stroke-miterlimit: 2; opacity: 1;"><g class="fills"/><g class="errorbars"/><g class="lines"/><g class="points"><path class="point" transform="translate(884,371.8)" d="M40,0A40,40 0 1,1 0,-40A40,40 0 0,1 40,0Z" style="opacity: 1; stroke-width: 3px; fill: rgb(46, 139, 87); fill-opacity: 1; stroke: rgb(255, 255, 255); stroke-opacity: 1;"/></g><g class="text"><g class="textpoint" transform="translate(0,3)"><text x="884" y="371.8" text-anchor="middle" style="font-family: 'Arial Black'; font-size: 12px; fill: rgb(255, 255, 255); fill-opacity: 1; white-space: pre;">Stacking Pred</text></g></g></g><g class="trace scatter trace6623dd" style="stroke-miterlimit: 2; opacity: 1;"><g class="fills"/><g class="errorbars"/><g class="lines"/><g class="points"/><g class="text"><g class="textpoint" transform="translate(0,4)"><text x="156" y="486.2" text-anchor="middle" style="font-family: 'Arial Black'; font-size: 16px; fill: rgb(51, 51, 51); fill-opacity: 1; white-space: pre;">BAGGING</text></g><g class="textpoint" transform="translate(0,4)"><text x="520" y="543.4" text-anchor="middle" style="font-family: 'Arial Black'; font-size: 16px; fill: rgb(51, 51, 51); fill-opacity: 1; white-space: pre;">BOOSTING</text></g><g class="textpoint" transform="translate(0,4)"><text x="884" y="486.2" text-anchor="middle" style="font-family: 'Arial Black'; font-size: 16px; fill: rgb(51, 51, 51); fill-opacity: 1; white-space: pre;">STACKING</text></g></g></g></g></g></g><path class="xlines-above crisp" d="" style="fill: none; stroke-width: 1px; stroke: rgb(0, 0, 0); stroke-opacity: 0;"/><path class="ylines-above crisp" d="" style="fill: none; stroke-width: 1px; stroke: rgb(0, 0, 0); stroke-opacity: 0;"/><g class="overlines-above"/><g class="xaxislayer-above"><path class="xtick ticks crisp" d="M0,721v5" transform="translate(80,0)" style="stroke: rgb(94, 82, 64); stroke-opacity: 0.2; stroke-width: 1px;"/><path class="xtick ticks crisp" d="M0,721v5" transform="translate(288,0)" style="stroke: rgb(94, 82, 64); stroke-opacity: 0.2; stroke-width: 1px;"/><path class="xtick ticks crisp" d="M0,721v5" transform="translate(496,0)" style="stroke: rgb(94, 82, 64); stroke-opacity: 0.2; stroke-width: 1px;"/><path class="xtick ticks crisp" d="M0,721v5" transform="translate(704,0)" style="stroke: rgb(94, 82, 64); stroke-opacity: 0.2; stroke-width: 1px;"/><path class="xtick ticks crisp" d="M0,721v5" transform="translate(912,0)" style="stroke: rgb(94, 82, 64); stroke-opacity: 0.2; stroke-width: 1px;"/><path class="xtick ticks crisp" d="M0,721v5" transform="translate(1120,0)" style="stroke: rgb(94, 82, 64); stroke-opacity: 0.2; stroke-width: 1px;"/></g><g class="yaxislayer-above"><path class="ytick ticks crisp" d="M79,0h-5" transform="translate(0,720)" style="stroke: rgb(94, 82, 64); stroke-opacity: 0.2; stroke-width: 1px;"/><path class="ytick ticks crisp" d="M79,0h-5" transform="translate(0,605.6)" style="stroke: rgb(94, 82, 64); stroke-opacity: 0.2; stroke-width: 1px;"/><path class="ytick ticks crisp" d="M79,0h-5" transform="translate(0,491.2)" style="stroke: rgb(94, 82, 64); stroke-opacity: 0.2; stroke-width: 1px;"/><path class="ytick ticks crisp" d="M79,0h-5" transform="translate(0,376.8)" style="stroke: rgb(94, 82, 64); stroke-opacity: 0.2; stroke-width: 1px;"/><path class="ytick ticks crisp" d="M79,0h-5" transform="translate(0,262.4)" style="stroke: rgb(94, 82, 64); stroke-opacity: 0.2; stroke-width: 1px;"/><path class="ytick ticks crisp" d="M79,0h-5" transform="translate(0,148)" style="stroke: rgb(94, 82, 64); stroke-opacity: 0.2; stroke-width: 1px;"/></g><g class="overaxes-above"/></g></g><g class="polarlayer"/><g class="smithlayer"/><g class="ternarylayer"/><g class="geolayer"/><g class="funnelarealayer"/><g class="pielayer"/><g class="iciclelayer"/><g class="treemaplayer"/><g class="sunburstlayer"/><g class="glimages"/><defs id="topdefs-ede0e4"><g class="clips"/></defs><g class="layer-above"><g class="imagelayer"/><g class="shapelayer"><g class="shape-group" data-index="0" clip-path="url(#clipede0e4xy)"><path data-index="0" fill-rule="evenodd" d="M132,577H340V205.2H132Z" style="opacity: 1; stroke: rgb(31, 184, 205); stroke-opacity: 1; fill: rgb(31, 184, 205); fill-opacity: 0.1; stroke-width: 2px;"/></g><g class="shape-group" data-index="1" clip-path="url(#clipede0e4xy)"><path data-index="1" fill-rule="evenodd" d="M496,662.8H704V205.2H496Z" style="opacity: 1; stroke: rgb(219, 69, 69); stroke-opacity: 1; fill: rgb(219, 69, 69); fill-opacity: 0.1; stroke-width: 2px;"/></g><g class="shape-group" data-index="2" clip-path="url(#clipede0e4xy)"><path data-index="2" fill-rule="evenodd" d="M860,577H1068V205.2H860Z" style="opacity: 1; stroke: rgb(46, 139, 87); stroke-opacity: 1; fill: rgb(46, 139, 87); fill-opacity: 0.1; stroke-width: 2px;"/></g></g></g><g class="infolayer"><g class="g-gtitle"><text class="gtitle" x="600" y="68" text-anchor="middle" dy="-0.3em" style="opacity: 1; font-family: 'FK Grotesk Neue'; font-size: 28px; fill: rgb(19, 52, 59); fill-opacity: 1; font-weight: 1000; white-space: pre;">Ensemble Methods Flow</text></g><g class="g-xtitle"/><g class="g-ytitle"/><g class="annotation" data-index="0" style="opacity: 1;"><g class="annotation-text-g" transform="rotate(0,600,176.6)"><g class="cursor-pointer" transform="translate(596,165)"><rect class="bg" x="0.5" y="0.5" width="7" height="23" style="stroke-width: 1px; stroke: rgb(0, 0, 0); stroke-opacity: 0; fill: rgb(0, 0, 0); fill-opacity: 0;"/><text class="annotation-text" text-anchor="middle" x="4.21875" y="17" style="font-family: 'FK Grotesk Neue'; font-size: 16px; fill: rgb(19, 52, 59); fill-opacity: 1; white-space: pre;"> </text></g></g><g class="annotation-arrow-g" style="opacity: 1;"><path d="M596.5,177.42499999999998L236,262.4" style="stroke-width: 3px; stroke: rgb(51, 51, 51); stroke-opacity: 1; stroke-dasharray: 0px, 0px, 361.08px, 370.38px;"/><path d="M-4.45,-3L-1.65,-0.2V0.2L-4.45,3L1.55,0Z" transform="translate(245.0519256591797,260.2663269042969)rotate(166.73344997508178)scale(6)" style="fill: rgb(51, 51, 51); stroke-width: 0;"/></g></g><g class="annotation" data-index="1" style="opacity: 1;"><g class="annotation-text-g" transform="rotate(0,600,176.6)"><g class="cursor-pointer" transform="translate(596,165)"><rect class="bg" x="0.5" y="0.5" width="7" height="23" style="stroke-width: 1px; stroke: rgb(0, 0, 0); stroke-opacity: 0; fill: rgb(0, 0, 0); fill-opacity: 0;"/><text class="annotation-text" text-anchor="middle" x="4.21875" y="17" style="font-family: 'FK Grotesk Neue'; font-size: 16px; fill: rgb(19, 52, 59); fill-opacity: 1; white-space: pre;"> </text></g></g><g class="annotation-arrow-g" style="opacity: 1;"><path d="M600,188.1L600,262.4" style="stroke-width: 3px; stroke: rgb(51, 51, 51); stroke-opacity: 1; stroke-dasharray: 0px, 0px, 65px, 74.3px;"/><path d="M-4.45,-3L-1.65,-0.2V0.2L-4.45,3L1.55,0Z" transform="translate(600,253.09999084472656)rotate(90)scale(6)" style="fill: rgb(51, 51, 51); stroke-width: 0;"/></g></g><g class="annotation" data-index="2" style="opacity: 1;"><g class="annotation-text-g" transform="rotate(0,600,176.6)"><g class="cursor-pointer" transform="translate(596,165)"><rect class="bg" x="0.5" y="0.5" width="7" height="23" style="stroke-width: 1px; stroke: rgb(0, 0, 0); stroke-opacity: 0; fill: rgb(0, 0, 0); fill-opacity: 0;"/><text class="annotation-text" text-anchor="middle" x="4.21875" y="17" style="font-family: 'FK Grotesk Neue'; font-size: 16px; fill: rgb(19, 52, 59); fill-opacity: 1; white-space: pre;"> </text></g></g><g class="annotation-arrow-g" style="opacity: 1;"><path d="M603.5,177.42499999999998L964,262.4" style="stroke-width: 3px; stroke: rgb(51, 51, 51); stroke-opacity: 1; stroke-dasharray: 0px, 0px, 361.08px, 370.38px;"/><path d="M-4.45,-3L-1.65,-0.2V0.2L-4.45,3L1.55,0Z" transform="translate(954.9480590820312,260.2663269042969)rotate(13.264544140836717)scale(6)" style="fill: rgb(51, 51, 51); stroke-width: 0;"/></g></g><g class="annotation" data-index="3" style="opacity: 1;"><g class="annotation-text-g" transform="rotate(0,236,262.4)"><g class="cursor-pointer" transform="translate(232,250)"><rect class="bg" x="0.5" y="0.5" width="7" height="23" style="stroke-width: 1px; stroke: rgb(0, 0, 0); stroke-opacity: 0; fill: rgb(0, 0, 0); fill-opacity: 0;"/><text class="annotation-text" text-anchor="middle" x="4.21875" y="17" style="font-family: 'FK Grotesk Neue'; font-size: 16px; fill: rgb(19, 52, 59); fill-opacity: 1; white-space: pre;"> </text></g></g><g class="annotation-arrow-g" style="opacity: 1;"><path d="M236,273.9L236,348.2" style="stroke-width: 3px; stroke: rgb(51, 51, 51); stroke-opacity: 1; stroke-dasharray: 0px, 0px, 65px, 74.3px;"/><path d="M-4.45,-3L-1.65,-0.2V0.2L-4.45,3L1.55,0Z" transform="translate(236,338.9000244140625)rotate(90)scale(6)" style="fill: rgb(51, 51, 51); stroke-width: 0;"/></g></g><g class="annotation" data-index="4" style="opacity: 1;"><g class="annotation-text-g" transform="rotate(0,236,348.2)"><g class="cursor-pointer" transform="translate(232,336)"><rect class="bg" x="0.5" y="0.5" width="7" height="23" style="stroke-width: 1px; stroke: rgb(0, 0, 0); stroke-opacity: 0; fill: rgb(0, 0, 0); fill-opacity: 0;"/><text class="annotation-text" text-anchor="middle" x="4.21875" y="17" style="font-family: 'FK Grotesk Neue'; font-size: 16px; fill: rgb(19, 52, 59); fill-opacity: 1; white-space: pre;"> </text></g></g><g class="annotation-arrow-g" style="opacity: 1;"><path d="M236,359.7L236,434" style="stroke-width: 3px; stroke: rgb(51, 51, 51); stroke-opacity: 1; stroke-dasharray: 0px, 0px, 65px, 74.3px;"/><path d="M-4.45,-3L-1.65,-0.2V0.2L-4.45,3L1.55,0Z" transform="translate(236,424.70001220703125)rotate(90)scale(6)" style="fill: rgb(51, 51, 51); stroke-width: 0;"/></g></g><g class="annotation" data-index="5" style="opacity: 1;"><g class="annotation-text-g" transform="rotate(0,236,434)"><g class="cursor-pointer" transform="translate(232,422)"><rect class="bg" x="0.5" y="0.5" width="7" height="23" style="stroke-width: 1px; stroke: rgb(0, 0, 0); stroke-opacity: 0; fill: rgb(0, 0, 0); fill-opacity: 0;"/><text class="annotation-text" text-anchor="middle" x="4.21875" y="17" style="font-family: 'FK Grotesk Neue'; font-size: 16px; fill: rgb(19, 52, 59); fill-opacity: 1; white-space: pre;"> </text></g></g><g class="annotation-arrow-g" style="opacity: 1;"><path d="M236,445.5L236,519.8" style="stroke-width: 3px; stroke: rgb(51, 51, 51); stroke-opacity: 1; stroke-dasharray: 0px, 0px, 65px, 74.3px;"/><path d="M-4.45,-3L-1.65,-0.2V0.2L-4.45,3L1.55,0Z" transform="translate(236,510.5)rotate(90)scale(6)" style="fill: rgb(51, 51, 51); stroke-width: 0;"/></g></g><g class="annotation" data-index="6" style="opacity: 1;"><g class="annotation-text-g" transform="rotate(0,600,262.4)"><g class="cursor-pointer" transform="translate(596,250)"><rect class="bg" x="0.5" y="0.5" width="7" height="23" style="stroke-width: 1px; stroke: rgb(0, 0, 0); stroke-opacity: 0; fill: rgb(0, 0, 0); fill-opacity: 0;"/><text class="annotation-text" text-anchor="middle" x="4.21875" y="17" style="font-family: 'FK Grotesk Neue'; font-size: 16px; fill: rgb(19, 52, 59); fill-opacity: 1; white-space: pre;"> </text></g></g><g class="annotation-arrow-g" style="opacity: 1;"><path d="M600,273.9L600,348.2" style="stroke-width: 3px; stroke: rgb(51, 51, 51); stroke-opacity: 1; stroke-dasharray: 0px, 0px, 65px, 74.3px;"/><path d="M-4.45,-3L-1.65,-0.2V0.2L-4.45,3L1.55,0Z" transform="translate(600,338.9000244140625)rotate(90)scale(6)" style="fill: rgb(51, 51, 51); stroke-width: 0;"/></g></g><g class="annotation" data-index="7" style="opacity: 1;"><g class="annotation-text-g" transform="rotate(0,600,348.2)"><g class="cursor-pointer" transform="translate(596,336)"><rect class="bg" x="0.5" y="0.5" width="7" height="23" style="stroke-width: 1px; stroke: rgb(0, 0, 0); stroke-opacity: 0; fill: rgb(0, 0, 0); fill-opacity: 0;"/><text class="annotation-text" text-anchor="middle" x="4.21875" y="17" style="font-family: 'FK Grotesk Neue'; font-size: 16px; fill: rgb(19, 52, 59); fill-opacity: 1; white-space: pre;"> </text></g></g><g class="annotation-arrow-g" style="opacity: 1;"><path d="M600,359.7L600,434" style="stroke-width: 3px; stroke: rgb(51, 51, 51); stroke-opacity: 1; stroke-dasharray: 0px, 0px, 65px, 74.3px;"/><path d="M-4.45,-3L-1.65,-0.2V0.2L-4.45,3L1.55,0Z" transform="translate(600,424.70001220703125)rotate(90)scale(6)" style="fill: rgb(51, 51, 51); stroke-width: 0;"/></g></g><g class="annotation" data-index="8" style="opacity: 1;"><g class="annotation-text-g" transform="rotate(0,600,434)"><g class="cursor-pointer" transform="translate(596,422)"><rect class="bg" x="0.5" y="0.5" width="7" height="23" style="stroke-width: 1px; stroke: rgb(0, 0, 0); stroke-opacity: 0; fill: rgb(0, 0, 0); fill-opacity: 0;"/><text class="annotation-text" text-anchor="middle" x="4.21875" y="17" style="font-family: 'FK Grotesk Neue'; font-size: 16px; fill: rgb(19, 52, 59); fill-opacity: 1; white-space: pre;"> </text></g></g><g class="annotation-arrow-g" style="opacity: 1;"><path d="M600,445.5L600,519.8" style="stroke-width: 3px; stroke: rgb(51, 51, 51); stroke-opacity: 1; stroke-dasharray: 0px, 0px, 65px, 74.3px;"/><path d="M-4.45,-3L-1.65,-0.2V0.2L-4.45,3L1.55,0Z" transform="translate(600,510.5)rotate(90)scale(6)" style="fill: rgb(51, 51, 51); stroke-width: 0;"/></g></g><g class="annotation" data-index="9" style="opacity: 1;"><g class="annotation-text-g" transform="rotate(0,600,519.8)"><g class="cursor-pointer" transform="translate(596,508)"><rect class="bg" x="0.5" y="0.5" width="7" height="23" style="stroke-width: 1px; stroke: rgb(0, 0, 0); stroke-opacity: 0; fill: rgb(0, 0, 0); fill-opacity: 0;"/><text class="annotation-text" text-anchor="middle" x="4.21875" y="17" style="font-family: 'FK Grotesk Neue'; font-size: 16px; fill: rgb(19, 52, 59); fill-opacity: 1; white-space: pre;"> </text></g></g><g class="annotation-arrow-g" style="opacity: 1;"><path d="M600,531.3L600,605.6" style="stroke-width: 3px; stroke: rgb(51, 51, 51); stroke-opacity: 1; stroke-dasharray: 0px, 0px, 65px, 74.3px;"/><path d="M-4.45,-3L-1.65,-0.2V0.2L-4.45,3L1.55,0Z" transform="translate(600,596.2999877929688)rotate(90)scale(6)" style="fill: rgb(51, 51, 51); stroke-width: 0;"/></g></g><g class="annotation" data-index="10" style="opacity: 1;"><g class="annotation-text-g" transform="rotate(0,964,262.4)"><g class="cursor-pointer" transform="translate(960,250)"><rect class="bg" x="0.5" y="0.5" width="7" height="23" style="stroke-width: 1px; stroke: rgb(0, 0, 0); stroke-opacity: 0; fill: rgb(0, 0, 0); fill-opacity: 0;"/><text class="annotation-text" text-anchor="middle" x="4.21875" y="17" style="font-family: 'FK Grotesk Neue'; font-size: 16px; fill: rgb(19, 52, 59); fill-opacity: 1; white-space: pre;"> </text></g></g><g class="annotation-arrow-g" style="opacity: 1;"><path d="M964,273.9L964,348.2" style="stroke-width: 3px; stroke: rgb(51, 51, 51); stroke-opacity: 1; stroke-dasharray: 0px, 0px, 65px, 74.3px;"/><path d="M-4.45,-3L-1.65,-0.2V0.2L-4.45,3L1.55,0Z" transform="translate(964,338.9000244140625)rotate(90)scale(6)" style="fill: rgb(51, 51, 51); stroke-width: 0;"/></g></g><g class="annotation" data-index="11" style="opacity: 1;"><g class="annotation-text-g" transform="rotate(0,964,348.2)"><g class="cursor-pointer" transform="translate(960,336)"><rect class="bg" x="0.5" y="0.5" width="7" height="23" style="stroke-width: 1px; stroke: rgb(0, 0, 0); stroke-opacity: 0; fill: rgb(0, 0, 0); fill-opacity: 0;"/><text class="annotation-text" text-anchor="middle" x="4.21875" y="17" style="font-family: 'FK Grotesk Neue'; font-size: 16px; fill: rgb(19, 52, 59); fill-opacity: 1; white-space: pre;"> </text></g></g><g class="annotation-arrow-g" style="opacity: 1;"><path d="M964,359.7L964,434" style="stroke-width: 3px; stroke: rgb(51, 51, 51); stroke-opacity: 1; stroke-dasharray: 0px, 0px, 65px, 74.3px;"/><path d="M-4.45,-3L-1.65,-0.2V0.2L-4.45,3L1.55,0Z" transform="translate(964,424.70001220703125)rotate(90)scale(6)" style="fill: rgb(51, 51, 51); stroke-width: 0;"/></g></g><g class="annotation" data-index="12" style="opacity: 1;"><g class="annotation-text-g" transform="rotate(0,964,434)"><g class="cursor-pointer" transform="translate(960,422)"><rect class="bg" x="0.5" y="0.5" width="7" height="23" style="stroke-width: 1px; stroke: rgb(0, 0, 0); stroke-opacity: 0; fill: rgb(0, 0, 0); fill-opacity: 0;"/><text class="annotation-text" text-anchor="middle" x="4.21875" y="17" style="font-family: 'FK Grotesk Neue'; font-size: 16px; fill: rgb(19, 52, 59); fill-opacity: 1; white-space: pre;"> </text></g></g><g class="annotation-arrow-g" style="opacity: 1;"><path d="M964,445.5L964,519.8" style="stroke-width: 3px; stroke: rgb(51, 51, 51); stroke-opacity: 1; stroke-dasharray: 0px, 0px, 65px, 74.3px;"/><path d="M-4.45,-3L-1.65,-0.2V0.2L-4.45,3L1.55,0Z" transform="translate(964,510.5)rotate(90)scale(6)" style="fill: rgb(51, 51, 51); stroke-width: 0;"/></g></g></g></svg>